<svg width="45" height="45" viewBox="0 0 45 45" fill="none" xmlns="http://www.w3.org/2000/svg">
<path d="M42.6257 4.56915H33.4382V1.06915C33.4382 0.828528 33.2414 0.631653 33.0007 0.631653H29.9382C29.6976 0.631653 29.5007 0.828528 29.5007 1.06915V4.56915H15.5007V1.06915C15.5007 0.828528 15.3039 0.631653 15.0632 0.631653H12.0007C11.7601 0.631653 11.5632 0.828528 11.5632 1.06915V4.56915H2.37573C1.40776 4.56915 0.625732 5.35118 0.625732 6.31915V42.6317C0.625732 43.5996 1.40776 44.3817 2.37573 44.3817H42.6257C43.5937 44.3817 44.3757 43.5996 44.3757 42.6317V6.31915C44.3757 5.35118 43.5937 4.56915 42.6257 4.56915ZM40.4382 40.4442H4.56323V19.6629H40.4382V40.4442ZM4.56323 15.9442V8.50665H11.5632V11.1317C11.5632 11.3723 11.7601 11.5692 12.0007 11.5692H15.0632C15.3039 11.5692 15.5007 11.3723 15.5007 11.1317V8.50665H29.5007V11.1317C29.5007 11.3723 29.6976 11.5692 29.9382 11.5692H33.0007C33.2414 11.5692 33.4382 11.3723 33.4382 11.1317V8.50665H40.4382V15.9442H4.56323Z" fill="white" fill-opacity="0.85"/>
</svg>
