<svg width="37" height="36" viewBox="0 0 37 36" fill="none" xmlns="http://www.w3.org/2000/svg">
<g clip-path="url(#clip0_51_121)">
<path d="M23.0221 25.8067H20.0449V16.0714C20.0449 15.8946 19.9003 15.75 19.7235 15.75H17.3128C17.136 15.75 16.9913 15.8946 16.9913 16.0714V25.8067H14.0221C13.7529 25.8067 13.6043 26.116 13.769 26.325L18.269 32.0183C18.2991 32.0567 18.3375 32.0878 18.3814 32.1091C18.4252 32.1305 18.4734 32.1416 18.5221 32.1416C18.5709 32.1416 18.6191 32.1305 18.6629 32.1091C18.7068 32.0878 18.7452 32.0567 18.7753 32.0183L23.2753 26.325C23.44 26.116 23.2913 25.8067 23.0221 25.8067Z" fill="white" fill-opacity="0.85"/>
<path d="M30.5514 12.1547C28.7113 7.30113 24.0224 3.84979 18.53 3.84979C13.0376 3.84979 8.34876 7.29711 6.50858 12.1507C3.06528 13.0547 0.521973 16.1926 0.521973 19.9212C0.521973 24.361 4.11795 27.9569 8.55367 27.9569H10.1648C10.3416 27.9569 10.4863 27.8123 10.4863 27.6355V25.2248C10.4863 25.048 10.3416 24.9034 10.1648 24.9034H8.55367C7.19965 24.9034 5.92599 24.365 4.97778 23.3886C4.03358 22.4163 3.53135 21.1065 3.57554 19.7485C3.6117 18.6877 3.97331 17.6913 4.62822 16.8516C5.2992 15.9958 6.23938 15.373 7.28403 15.0958L8.80679 14.698L9.36528 13.2275C9.71081 12.3114 10.193 11.4556 10.7997 10.6801C11.3986 9.91156 12.1081 9.23593 12.905 8.67524C14.5563 7.51408 16.501 6.89935 18.53 6.89935C20.559 6.89935 22.5037 7.51408 24.155 8.67524C24.9546 9.23774 25.6617 9.91274 26.2604 10.6801C26.8671 11.4556 27.3492 12.3154 27.6947 13.2275L28.2492 14.694L29.768 15.0958C31.9456 15.6824 33.4684 17.6632 33.4684 19.9212C33.4684 21.2511 32.9501 22.5047 32.0099 23.4449C31.5488 23.9087 31.0004 24.2764 30.3962 24.5267C29.7921 24.7771 29.1442 24.9051 28.4903 24.9034H26.8791C26.7023 24.9034 26.5577 25.048 26.5577 25.2248V27.6355C26.5577 27.8123 26.7023 27.9569 26.8791 27.9569H28.4903C32.926 27.9569 36.522 24.361 36.522 19.9212C36.522 16.1967 33.9867 13.0627 30.5514 12.1547Z" fill="white" fill-opacity="0.85"/>
</g>
<defs>
<clipPath id="clip0_51_121">
<rect width="36" height="36" fill="white" transform="translate(0.521973)"/>
</clipPath>
</defs>
</svg>
