<svg width="36" height="36" viewBox="0 0 36 36" fill="none" xmlns="http://www.w3.org/2000/svg">
<g clip-path="url(#clip0_7_404)">
<path d="M22.5002 25.8067H19.5229V16.0714C19.5229 15.8946 19.3783 15.75 19.2015 15.75H16.7908C16.614 15.75 16.4694 15.8946 16.4694 16.0714V25.8067H13.5002C13.231 25.8067 13.0823 26.1161 13.247 26.325L17.747 32.0183C17.7771 32.0567 17.8155 32.0878 17.8594 32.1092C17.9032 32.1305 17.9514 32.1416 18.0002 32.1416C18.049 32.1416 18.0971 32.1305 18.141 32.1092C18.1848 32.0878 18.2232 32.0567 18.2533 32.0183L22.7533 26.325C22.918 26.1161 22.7694 25.8067 22.5002 25.8067Z" fill="#151515" fill-opacity="0.85"/>
<path d="M30.0295 12.1547C28.1893 7.30116 23.5004 3.84982 18.008 3.84982C12.5156 3.84982 7.82679 7.29714 5.98661 12.1507C2.5433 13.0547 0 16.1927 0 19.9213C0 24.361 3.59598 27.957 8.0317 27.957H9.64286C9.81964 27.957 9.96429 27.8123 9.96429 27.6355V25.2248C9.96429 25.048 9.81964 24.9034 9.64286 24.9034H8.0317C6.67768 24.9034 5.40402 24.365 4.4558 23.3887C3.51161 22.4163 3.00937 21.1065 3.05357 19.7485C3.08973 18.6878 3.45134 17.6913 4.10625 16.8516C4.77723 15.9958 5.71741 15.373 6.76205 15.0958L8.28482 14.698L8.8433 13.2275C9.18884 12.3114 9.67098 11.4556 10.2777 10.6802C10.8766 9.91159 11.5861 9.23596 12.383 8.67527C14.0344 7.51411 15.979 6.89938 18.008 6.89938C20.0371 6.89938 21.9817 7.51411 23.633 8.67527C24.4326 9.23777 25.1397 9.91277 25.7384 10.6802C26.3451 11.4556 26.8272 12.3154 27.1728 13.2275L27.7272 14.694L29.246 15.0958C31.4237 15.6824 32.9464 17.6632 32.9464 19.9213C32.9464 21.2512 32.4281 22.5047 31.4879 23.4449C31.0269 23.9087 30.4784 24.2764 29.8742 24.5267C29.2701 24.7771 28.6223 24.9051 27.9683 24.9034H26.3571C26.1804 24.9034 26.0357 25.048 26.0357 25.2248V27.6355C26.0357 27.8123 26.1804 27.957 26.3571 27.957H27.9683C32.404 27.957 36 24.361 36 19.9213C36 16.1967 33.4647 13.0628 30.0295 12.1547Z" fill="#151515" fill-opacity="0.85"/>
</g>
<defs>
<clipPath id="clip0_7_404">
<rect width="36" height="36" fill="white"/>
</clipPath>
</defs>
</svg>
