<svg width="48" height="48" viewBox="0 0 48 48" fill="none" xmlns="http://www.w3.org/2000/svg">
<path d="M42.561 37.4721C41.5505 35.0783 40.0839 32.904 38.2432 31.0703C36.408 29.2312 34.234 27.7649 31.8414 26.7524C31.82 26.7417 31.7985 26.7363 31.7771 26.7256C35.1146 24.3149 37.2842 20.3881 37.2842 15.9578C37.2842 8.61849 31.3378 2.67206 23.9985 2.67206C16.6592 2.67206 10.7128 8.61849 10.7128 15.9578C10.7128 20.3881 12.8824 24.3149 16.2199 26.731C16.1985 26.7417 16.1771 26.7471 16.1557 26.7578C13.7557 27.7703 11.6021 29.2221 9.75388 31.0756C7.91482 32.9108 6.44854 35.0848 5.43602 37.4774C4.44132 39.8198 3.90485 42.3312 3.85566 44.8756C3.85423 44.9328 3.86426 44.9897 3.88516 45.0429C3.90606 45.0962 3.9374 45.1447 3.97734 45.1856C4.01728 45.2266 4.06501 45.2591 4.11771 45.2813C4.17042 45.3035 4.22704 45.3149 4.28424 45.3149H7.49852C7.73424 45.3149 7.92174 45.1274 7.92709 44.8971C8.03424 40.7614 9.69495 36.8881 12.6307 33.9524C15.6682 30.9149 19.7021 29.2435 23.9985 29.2435C28.2949 29.2435 32.3289 30.9149 35.3664 33.9524C38.3021 36.8881 39.9628 40.7614 40.0699 44.8971C40.0753 45.1328 40.2628 45.3149 40.4985 45.3149H43.7128C43.77 45.3149 43.8266 45.3035 43.8793 45.2813C43.932 45.2591 43.9798 45.2266 44.0197 45.1856C44.0596 45.1447 44.091 45.0962 44.1119 45.0429C44.1328 44.9897 44.1428 44.9328 44.1414 44.8756C44.0878 42.3149 43.5574 39.8238 42.561 37.4721V37.4721ZM23.9985 25.1721C21.5396 25.1721 19.2253 24.2131 17.4842 22.4721C15.7432 20.731 14.7842 18.4167 14.7842 15.9578C14.7842 13.4988 15.7432 11.1846 17.4842 9.44349C19.2253 7.70242 21.5396 6.74349 23.9985 6.74349C26.4574 6.74349 28.7717 7.70242 30.5128 9.44349C32.2539 11.1846 33.2128 13.4988 33.2128 15.9578C33.2128 18.4167 32.2539 20.731 30.5128 22.4721C28.7717 24.2131 26.4574 25.1721 23.9985 25.1721Z" fill="black" fill-opacity="0.85"/>
</svg>
