<svg width="457" height="399" viewBox="0 0 457 399" fill="none" xmlns="http://www.w3.org/2000/svg">
<path d="M369.704 201.75C369.704 175.256 364.923 149.021 355.633 124.544C346.344 100.066 332.728 77.8254 315.562 59.0912C298.397 40.357 278.019 25.4962 255.592 15.3573C233.165 5.21841 209.127 -1.1581e-06 184.852 0L184.852 201.75L369.704 201.75Z" fill="#151515"/>
<path d="M739.408 201.75C739.408 161.848 728.567 122.841 708.255 89.6637C687.943 56.4861 659.073 30.6273 625.296 15.3573C591.518 0.0873241 554.351 -3.908 518.493 3.87657C482.635 11.6611 449.698 30.876 423.846 59.0912C397.994 87.3064 380.388 123.255 373.256 162.39C366.123 201.526 369.784 242.091 383.775 278.956C397.766 315.821 421.459 347.33 451.858 369.499C482.256 391.667 517.996 403.5 554.556 403.5L554.556 201.75H739.408Z" fill="#151515"/>
<path d="M0 82.8333C0 37.0857 37.0857 0 82.8333 0H184.852V118.917C184.852 164.664 147.766 201.75 102.019 201.75H0V82.8333Z" fill="#EF1758"/>
<path d="M369.704 0H554.556L369.704 201.75V0Z" fill="#FDD57F"/>
<rect y="201.75" width="184.852" height="201.75" fill="#FDD57F"/>
<mask id="path-6-inside-1_37_106" fill="white">
<path d="M369.704 403.5C369.704 363.598 358.863 324.591 338.551 291.414C318.239 258.236 289.369 232.377 255.592 217.107C221.815 201.837 184.647 197.842 148.789 205.627C112.932 213.411 79.994 232.626 54.142 260.841C28.2899 289.056 10.6844 325.005 3.55188 364.141C-3.58068 403.276 0.0800107 443.841 14.071 480.706C28.0621 517.571 51.755 549.08 82.1538 571.249C112.553 593.418 148.292 605.25 184.852 605.25L184.852 403.5H369.704Z"/>
</mask>
<path d="M369.704 403.5C369.704 363.598 358.863 324.591 338.551 291.414C318.239 258.236 289.369 232.377 255.592 217.107C221.815 201.837 184.647 197.842 148.789 205.627C112.932 213.411 79.994 232.626 54.142 260.841C28.2899 289.056 10.6844 325.005 3.55188 364.141C-3.58068 403.276 0.0800107 443.841 14.071 480.706C28.0621 517.571 51.755 549.08 82.1538 571.249C112.553 593.418 148.292 605.25 184.852 605.25L184.852 403.5H369.704Z" stroke="#151515" stroke-width="6.62666" mask="url(#path-6-inside-1_37_106)"/>
<mask id="path-7-inside-2_37_106" fill="white">
<path d="M369.705 403.5C369.705 443.402 380.546 482.409 400.858 515.586C421.17 548.764 450.04 574.623 483.817 589.893C517.594 605.163 554.762 609.158 590.62 601.373C626.478 593.589 659.415 574.374 685.267 546.159C711.119 517.944 728.725 481.995 735.857 442.86C742.99 403.724 739.329 363.159 725.338 326.294C711.347 289.429 687.654 257.92 657.255 235.751C626.857 213.583 591.117 201.75 554.557 201.75L554.557 403.5L369.705 403.5Z"/>
</mask>
<path d="M369.705 403.5C369.705 443.402 380.546 482.409 400.858 515.586C421.17 548.764 450.04 574.623 483.817 589.893C517.594 605.163 554.762 609.158 590.62 601.373C626.478 593.589 659.415 574.374 685.267 546.159C711.119 517.944 728.725 481.995 735.857 442.86C742.99 403.724 739.329 363.159 725.338 326.294C711.347 289.429 687.654 257.92 657.255 235.751C626.857 213.583 591.117 201.75 554.557 201.75L554.557 403.5L369.705 403.5Z" stroke="#FDD57F" stroke-width="6.62666" mask="url(#path-7-inside-2_37_106)"/>
<ellipse cx="138.638" cy="50.4375" rx="46.2131" ry="50.4375" fill="#FDD57F"/>
</svg>
