<svg width="46" height="48" viewBox="0 0 46 48" fill="none" xmlns="http://www.w3.org/2000/svg">
<path d="M25.5103 2.51277C25.5103 1.6454 26.3159 0.9375 27.3193 0.9375C28.3228 0.9375 29.1284 1.64151 29.1284 2.51277V9.40508C29.1284 10.2725 28.3228 10.9804 27.3193 10.9804C26.3159 10.9804 25.5103 10.2763 25.5103 9.40508V2.51277ZM33.4607 23.1197C35.0208 23.1197 36.5112 23.4503 37.8735 24.0493C39.2908 24.6716 40.5615 25.5818 41.6235 26.7098C42.6855 27.8377 43.5425 29.1913 44.1284 30.6888C44.6924 32.1357 45.0037 33.7188 45.0037 35.3757C45.0037 37.0327 44.6924 38.6157 44.1284 40.0626C43.5425 41.5679 42.6855 42.9176 41.6235 44.0455C40.5615 45.1735 39.2871 46.0837 37.8772 46.706C36.5149 47.305 35.0244 47.6356 33.4644 47.6356C31.9043 47.6356 30.4138 47.305 29.0515 46.706C27.6343 46.0837 26.3635 45.1735 25.3015 44.0455C24.2395 42.9176 23.3826 41.564 22.7966 40.0626C22.2327 38.6157 21.9214 37.0327 21.9214 35.3757C21.9214 33.7188 22.2327 32.1357 22.7966 30.6888C23.3826 29.1835 24.2395 27.8338 25.3015 26.7059C26.3635 25.5779 27.6379 24.6677 29.0479 24.0454C30.4102 23.4503 31.897 23.1197 33.4607 23.1197ZM32.5964 30.2531C32.5964 29.9575 32.71 29.6892 32.8931 29.4947C33.0762 29.3002 33.3289 29.1796 33.6108 29.1796C33.8928 29.1796 34.1455 29.3002 34.3286 29.4947C34.5117 29.6892 34.6252 29.9575 34.6252 30.257V35.9903L38.6609 38.534L38.6938 38.5574C38.9172 38.7091 39.0637 38.9385 39.1223 39.1914C39.1846 39.4559 39.1553 39.7437 39.0198 39.9926L39.0125 40.0043C39.0051 40.0198 38.9978 40.0315 38.9868 40.0432C38.844 40.2766 38.6279 40.4321 38.3936 40.4944C38.1445 40.5605 37.8735 40.5294 37.6392 40.3855L33.1274 37.55C32.97 37.4605 32.8381 37.3244 32.7429 37.1649C32.6477 37.0015 32.5928 36.811 32.5928 36.6087L32.5964 30.2531ZM40.1917 28.2267C39.3127 27.2932 38.2654 26.5425 37.1045 26.033C35.9839 25.539 34.7534 25.2706 33.4607 25.2706C32.168 25.2706 30.9375 25.5429 29.8169 26.033C28.656 26.5425 27.6086 27.2932 26.7297 28.2267C25.8508 29.1602 25.144 30.2726 24.6643 31.5056C24.1992 32.6958 23.9465 34.0027 23.9465 35.3757C23.9465 36.7487 24.2029 38.0556 24.6643 39.2458C25.144 40.4788 25.8508 41.5912 26.7297 42.5247C27.6086 43.4582 28.656 44.2089 29.8169 44.7184C30.9375 45.2124 32.168 45.4808 33.4607 45.4808C34.7534 45.4808 35.9839 45.2085 37.1045 44.7184C38.2654 44.2089 39.3127 43.4582 40.1917 42.5247C41.9165 40.6927 42.9785 38.1684 42.9785 35.3757C42.9785 34.0027 42.7222 32.6958 42.2607 31.5056C41.7773 30.2726 41.0706 29.1602 40.1917 28.2267ZM4.92554 23.248C4.823 23.248 4.73145 22.7696 4.73145 22.1823C4.73145 21.595 4.81201 21.1205 4.92554 21.1205H9.86206C9.9646 21.1205 10.0562 21.5989 10.0562 22.1823C10.0562 22.7696 9.97559 23.248 9.86206 23.248H4.92554ZM12.7954 23.248C12.6929 23.248 12.6013 22.7696 12.6013 22.1823C12.6013 21.595 12.6819 21.1205 12.7954 21.1205H17.7319C17.8345 21.1205 17.926 21.5989 17.926 22.1823C17.926 22.7696 17.8455 23.248 17.7319 23.248H12.7954ZM20.6653 23.248C20.5627 23.248 20.4712 22.7696 20.4712 22.1823C20.4712 21.595 20.5518 21.1205 20.6653 21.1205H25.6018C25.7043 21.1205 25.7959 21.595 25.7959 22.1784C25.3015 22.5051 24.8254 22.863 24.3713 23.248H20.6653ZM4.93652 29.3469C4.83398 29.3469 4.74243 28.8685 4.74243 28.2811C4.74243 27.6938 4.823 27.2154 4.93652 27.2154H9.87305C9.97559 27.2154 10.0671 27.6938 10.0671 28.2811C10.0671 28.8685 9.98657 29.3469 9.87305 29.3469H4.93652ZM12.8064 29.3469C12.7039 29.3469 12.6123 28.8685 12.6123 28.2811C12.6123 27.6938 12.6929 27.2154 12.8064 27.2154H17.7429C17.8455 27.2154 17.937 27.6938 17.937 28.2811C17.937 28.8685 17.8564 29.3469 17.7429 29.3469H12.8064ZM4.94751 35.4496C4.84497 35.4496 4.75342 34.9712 4.75342 34.3839C4.75342 33.7965 4.83398 33.3181 4.94751 33.3181H9.88403C9.98657 33.3181 10.0781 33.7965 10.0781 34.3839C10.0781 34.9712 9.99756 35.4496 9.88403 35.4496H4.94751ZM12.8174 35.4496C12.7148 35.4496 12.6233 34.9712 12.6233 34.3839C12.6233 33.7965 12.7039 33.3181 12.8174 33.3181H17.7539C17.8564 33.3181 17.948 33.7965 17.948 34.3839C17.948 34.9712 17.8674 35.4496 17.7539 35.4496H12.8174ZM9.26147 2.51277C9.26147 1.6454 10.0671 0.9375 11.0706 0.9375C12.074 0.9375 12.8796 1.64151 12.8796 2.51277V9.40508C12.8796 10.2725 12.0703 10.9804 11.0706 10.9804C10.0671 10.9804 9.26147 10.2763 9.26147 9.40508V2.51277ZM1.99219 16.0057H36.4453V8.07096C36.4453 7.79869 36.3428 7.56143 36.178 7.3864C36.0132 7.21137 35.7788 7.10246 35.5334 7.10246H32.2302C31.6772 7.10246 31.2268 6.62404 31.2268 6.03672C31.2268 5.44939 31.6772 4.97098 32.2302 4.97098H35.5334C36.3428 4.97098 37.0679 5.31715 37.5989 5.88114C38.1299 6.44512 38.4558 7.21526 38.4558 8.07485V20.6732C37.7966 20.432 37.1191 20.2375 36.4233 20.0936V18.1255H36.4453H1.99219V38.6741C1.99219 38.9463 2.09473 39.1836 2.25952 39.3586C2.42432 39.5336 2.65869 39.6426 2.90405 39.6426H19.2773C19.4641 40.3816 19.6985 41.1011 19.9805 41.7935H2.92236C2.1167 41.7935 1.38794 41.4473 0.856934 40.8833C0.325928 40.3232 0 39.5531 0 38.6935V8.07874C0 7.22304 0.325928 6.44901 0.856934 5.88503C1.38794 5.32104 2.11304 4.97487 2.92236 4.97487H6.44897C7.00195 4.97487 7.45239 5.45328 7.45239 6.04061C7.45239 6.62793 7.00195 7.10635 6.44897 7.10635H2.92236C2.66602 7.10635 2.44263 7.21526 2.27783 7.39029C2.11304 7.56532 2.0105 7.81425 2.0105 8.07485V16.0096H1.99219V16.0057ZM15.7727 7.10246C15.2197 7.10246 14.7693 6.62404 14.7693 6.03672C14.7693 5.44939 15.2197 4.97098 15.7727 4.97098H22.4963C23.0493 4.97098 23.4998 5.44939 23.4998 6.03672C23.4998 6.62404 23.0493 7.10246 22.4963 7.10246H15.7727Z" fill="black"/>
</svg>
