<svg width="308" height="287" viewBox="0 0 308 287" fill="none" xmlns="http://www.w3.org/2000/svg">
<path d="M-0.19986 119.25C-0.19986 141.279 3.77571 163.093 11.4998 183.445C19.224 203.798 30.5454 222.29 44.8178 237.867C59.0902 253.444 76.0339 265.801 94.6816 274.231C113.329 282.661 133.316 287 153.5 287L153.5 119.25H-0.19986Z" fill="#151515"/>
<path d="M-307.599 119.25C-307.599 152.428 -298.585 184.861 -281.696 212.447C-264.807 240.033 -240.803 261.534 -212.718 274.231C-184.633 286.927 -153.729 290.249 -123.914 283.777C-94.099 277.304 -66.7123 261.327 -45.217 237.867C-23.7217 214.407 -9.08316 184.517 -3.15261 151.976C2.77793 119.436 -0.265837 85.7072 -11.899 55.0549C-23.5322 24.4026 -43.2323 -1.79634 -68.5081 -20.2289C-93.7839 -38.6615 -123.5 -48.4999 -153.899 -48.4999L-153.899 119.25H-307.599Z" fill="#151515"/>
<path d="M307.2 204.167C307.2 249.914 270.114 287 224.367 287H153.5V202.083C153.5 156.336 190.586 119.25 236.333 119.25H307.2V204.167Z" fill="#EF1758"/>
<rect x="307.2" y="119.25" width="153.7" height="167.75" transform="rotate(-180 307.2 119.25)" fill="#FDD57F"/>
<mask id="path-5-inside-1_37_134" fill="white">
<path d="M-0.19986 -48.5C-0.19986 -15.3222 8.81448 17.1105 25.7032 44.6969C42.592 72.2832 66.5967 93.7841 94.6816 106.481C122.767 119.177 153.671 122.499 183.485 116.027C213.3 109.554 240.687 93.5774 262.182 70.1171C283.678 46.6569 298.316 16.7667 304.247 -15.7736C310.177 -48.3139 307.133 -82.0428 295.5 -112.695C283.867 -143.347 264.167 -169.546 238.891 -187.979C213.615 -206.412 183.899 -216.25 153.5 -216.25L153.5 -48.5H-0.19986Z"/>
</mask>
<path d="M-0.19986 -48.5C-0.19986 -15.3222 8.81448 17.1105 25.7032 44.6969C42.592 72.2832 66.5967 93.7841 94.6816 106.481C122.767 119.177 153.671 122.499 183.485 116.027C213.3 109.554 240.687 93.5774 262.182 70.1171C283.678 46.6569 298.316 16.7667 304.247 -15.7736C310.177 -48.3139 307.133 -82.0428 295.5 -112.695C283.867 -143.347 264.167 -169.546 238.891 -187.979C213.615 -206.412 183.899 -216.25 153.5 -216.25L153.5 -48.5H-0.19986Z" stroke="#151515" stroke-width="6.62666" mask="url(#path-5-inside-1_37_134)"/>
<ellipse cx="191.926" cy="245.063" rx="38.425" ry="41.9375" transform="rotate(-180 191.926 245.063)" fill="#FDD57F"/>
</svg>
