<svg width="1050" height="274" viewBox="0 0 1050 274" fill="none" xmlns="http://www.w3.org/2000/svg">
<path d="M176.834 194.083V50.2333H210.114V194.083H176.834ZM309.16 81.8803C317.925 81.8803 325.732 83.6613 332.58 87.2233C339.564 90.6483 345.043 95.9913 349.014 103.252C352.986 110.376 354.972 119.555 354.972 130.789V194.083H322.924V135.721C322.924 126.816 320.938 120.24 316.966 115.993C313.132 111.746 307.653 109.623 300.532 109.623C295.464 109.623 290.876 110.719 286.768 112.911C282.796 114.966 279.646 118.185 277.318 122.569C275.126 126.953 274.031 132.57 274.031 139.42V194.083H241.983V83.5243H272.593V114.144L266.84 104.896C270.812 97.4983 276.496 91.8128 283.891 87.8398C291.287 83.8668 299.71 81.8803 309.16 81.8803ZM451.199 81.8803C459.964 81.8803 467.77 83.6613 474.618 87.2233C481.603 90.6483 487.081 95.9913 491.053 103.252C495.025 110.376 497.011 119.555 497.011 130.789V194.083H464.963V135.721C464.963 126.816 462.977 120.24 459.005 115.993C455.17 111.746 449.692 109.623 442.57 109.623C437.503 109.623 432.915 110.719 428.806 112.911C424.835 114.966 421.685 118.185 419.356 122.569C417.165 126.953 416.069 132.57 416.069 139.42V194.083H384.022V83.5243H414.631V114.144L408.879 104.896C412.851 97.4983 418.535 91.8128 425.93 87.8398C433.326 83.8668 441.749 81.8803 451.199 81.8803Z" fill="#FDD57F"/>
<path d="M558.108 194.083V77.3593H512.091V50.2333H637.406V77.3593H591.388V194.083H558.108ZM653.052 194.083V83.5243H685.1V194.083H653.052ZM669.076 68.1118C663.187 68.1118 658.393 66.3993 654.696 62.9743C650.998 59.5493 649.149 55.3023 649.149 50.2333C649.149 45.1643 650.998 40.9173 654.696 37.4923C658.393 34.0673 663.187 32.3548 669.076 32.3548C674.965 32.3548 679.759 33.9988 683.456 37.2868C687.154 40.4378 689.003 44.5478 689.003 49.6168C689.003 54.9598 687.154 59.4123 683.456 62.9743C679.896 66.3993 675.102 68.1118 669.076 68.1118ZM856.388 81.8803C865.153 81.8803 872.891 83.6613 879.602 87.2233C886.45 90.6483 891.791 95.9913 895.626 103.252C899.598 110.376 901.584 119.555 901.584 130.789V194.083H869.536V135.721C869.536 126.816 867.687 120.24 863.989 115.993C860.291 111.746 855.087 109.623 848.376 109.623C843.719 109.623 839.542 110.719 835.844 112.911C832.147 114.966 829.271 118.117 827.216 122.364C825.162 126.611 824.135 132.022 824.135 138.598V194.083H792.087V135.721C792.087 126.816 790.238 120.24 786.54 115.993C782.979 111.746 777.843 109.623 771.133 109.623C766.476 109.623 762.299 110.719 758.601 112.911C754.903 114.966 752.027 118.117 749.973 122.364C747.918 126.611 746.891 132.022 746.891 138.598V194.083H714.843V83.5243H745.453V113.733L739.701 104.896C743.536 97.3613 748.946 91.6758 755.93 87.8398C763.052 83.8668 771.133 81.8803 780.172 81.8803C790.306 81.8803 799.14 84.4833 806.673 89.6893C814.342 94.7583 819.41 102.567 821.875 113.116L810.576 110.034C814.274 101.403 820.163 94.5528 828.243 89.4838C836.461 84.4148 845.842 81.8803 856.388 81.8803ZM985.963 195.727C973.363 195.727 962.269 193.261 952.682 188.329C943.232 183.397 935.905 176.684 930.701 168.19C925.496 159.559 922.894 149.764 922.894 138.804C922.894 127.707 925.428 117.911 930.495 109.417C935.699 100.786 942.753 94.0733 951.655 89.2783C960.557 84.3463 970.623 81.8803 981.854 81.8803C992.673 81.8803 1002.4 84.2093 1011.03 88.8673C1019.79 93.3883 1026.71 99.9643 1031.77 108.595C1036.84 117.089 1039.38 127.296 1039.38 139.215C1039.38 140.448 1039.31 141.886 1039.17 143.53C1039.03 145.037 1038.9 146.476 1038.76 147.846H948.984V129.145H1021.91L1009.59 134.694C1009.59 128.94 1008.42 123.939 1006.1 119.692C1003.77 115.445 1000.55 112.157 996.44 109.828C992.331 107.362 987.537 106.129 982.059 106.129C976.581 106.129 971.719 107.362 967.473 109.828C963.365 112.157 960.146 115.514 957.818 119.898C955.49 124.145 954.326 129.214 954.326 135.105V140.037C954.326 146.065 955.627 151.408 958.229 156.066C960.968 160.587 964.734 164.08 969.528 166.546C974.458 168.875 980.21 170.04 986.784 170.04C992.673 170.04 997.809 169.149 1002.19 167.368C1006.71 165.587 1010.82 162.916 1014.52 159.354L1031.57 177.849C1026.5 183.603 1020.13 188.055 1012.46 191.206C1004.79 194.22 995.96 195.727 985.963 195.727Z" fill="black"/>
<path d="M21.4337 263.405C17.5989 263.405 13.9239 262.903 10.4087 261.898C6.89348 260.848 4.06304 259.501 1.91739 257.857L5.68369 249.5C7.73804 250.961 10.1576 252.171 12.9424 253.13C15.7728 254.044 18.6261 254.5 21.5022 254.5C23.6935 254.5 25.4511 254.295 26.775 253.884C28.1446 253.427 29.1489 252.811 29.788 252.034C30.4272 251.258 30.7467 250.367 30.7467 249.363C30.7467 248.084 30.2446 247.079 29.2402 246.349C28.2359 245.572 26.912 244.956 25.2685 244.499C23.625 243.997 21.7989 243.54 19.7902 243.129C17.8272 242.673 15.8413 242.125 13.8326 241.485C11.8696 240.846 10.0663 240.024 8.42282 239.019C6.77935 238.015 5.43261 236.69 4.38261 235.046C3.37826 233.402 2.87608 231.302 2.87608 228.744C2.87608 226.004 3.60652 223.515 5.06739 221.278C6.57391 218.994 8.81087 217.191 11.7783 215.866C14.7913 214.496 18.5576 213.811 23.0772 213.811C26.0902 213.811 29.0576 214.177 31.9793 214.907C34.9011 215.592 37.4804 216.643 39.7174 218.058L36.2935 226.484C34.0565 225.205 31.8196 224.269 29.5826 223.675C27.3457 223.036 25.1543 222.716 23.0087 222.716C20.863 222.716 19.1054 222.967 17.7359 223.47C16.3663 223.972 15.3848 224.634 14.7913 225.456C14.1978 226.233 13.9011 227.146 13.9011 228.196C13.9011 229.429 14.4033 230.434 15.4076 231.21C16.412 231.941 17.7359 232.535 19.3793 232.991C21.0228 233.448 22.8261 233.905 24.7891 234.361C26.7978 234.818 28.7837 235.343 30.7467 235.937C32.7554 236.531 34.5815 237.33 36.225 238.334C37.8685 239.339 39.1924 240.663 40.1967 242.307C41.2467 243.951 41.7717 246.029 41.7717 248.541C41.7717 251.235 41.0185 253.701 39.512 255.939C38.0054 258.176 35.7457 259.98 32.7326 261.35C29.7652 262.72 25.9989 263.405 21.4337 263.405ZM85.9878 263.405C82.29 263.405 78.8432 262.812 75.6476 261.624C72.4976 260.391 69.7585 258.656 67.4302 256.418C65.1019 254.181 63.2759 251.555 61.9519 248.541C60.6737 245.527 60.0345 242.216 60.0345 238.608C60.0345 235.001 60.6737 231.69 61.9519 228.676C63.2759 225.662 65.1019 223.036 67.4302 220.798C69.8041 218.561 72.5661 216.848 75.7161 215.661C78.8661 214.428 82.3128 213.811 86.0563 213.811C90.2106 213.811 93.9541 214.542 97.2867 216.003C100.665 217.419 103.495 219.52 105.778 222.305L98.6563 228.881C97.0128 227.009 95.1867 225.616 93.178 224.703C91.1693 223.744 88.978 223.264 86.6041 223.264C84.3672 223.264 82.3128 223.63 80.4411 224.36C78.5693 225.091 76.9487 226.141 75.5791 227.511C74.2095 228.881 73.1367 230.503 72.3606 232.375C71.6302 234.247 71.265 236.325 71.265 238.608C71.265 240.892 71.6302 242.969 72.3606 244.842C73.1367 246.714 74.2095 248.335 75.5791 249.705C76.9487 251.075 78.5693 252.126 80.4411 252.856C82.3128 253.587 84.3672 253.952 86.6041 253.952C88.978 253.952 91.1693 253.496 93.178 252.582C95.1867 251.623 97.0128 250.185 98.6563 248.267L105.778 254.843C103.495 257.629 100.665 259.752 97.2867 261.213C93.9541 262.675 90.1878 263.405 85.9878 263.405ZM159.835 214.633H170.929V262.583H159.835V214.633ZM138.059 262.583H126.966V214.633H138.059V262.583ZM160.657 242.924H137.237V233.539H160.657V242.924ZM206.169 233.95H229.246V242.581H206.169V233.95ZM206.99 253.678H233.081V262.583H195.965V214.633H232.19V223.538H206.99V253.678ZM255.603 262.583V214.633H277.379C282.584 214.633 287.172 215.638 291.143 217.647C295.115 219.611 298.219 222.374 300.456 225.936C302.693 229.498 303.812 233.722 303.812 238.608C303.812 243.449 302.693 247.673 300.456 251.281C298.219 254.843 295.115 257.629 291.143 259.638C287.172 261.602 282.584 262.583 277.379 262.583H255.603ZM266.697 253.473H276.831C280.027 253.473 282.789 252.879 285.117 251.692C287.491 250.459 289.317 248.724 290.596 246.486C291.919 244.248 292.581 241.622 292.581 238.608C292.581 235.549 291.919 232.923 290.596 230.731C289.317 228.493 287.491 226.781 285.117 225.593C282.789 224.36 280.027 223.744 276.831 223.744H266.697V253.473ZM347.17 263.405C340.368 263.405 335.049 261.51 331.215 257.72C327.38 253.929 325.462 248.518 325.462 241.485V214.633H336.556V241.074C336.556 245.641 337.492 248.929 339.363 250.938C341.235 252.948 343.86 253.952 347.238 253.952C350.617 253.952 353.242 252.948 355.113 250.938C356.985 248.929 357.921 245.641 357.921 241.074V214.633H368.878V241.485C368.878 248.518 366.96 253.929 363.125 257.72C359.291 261.51 353.972 263.405 347.17 263.405ZM393.535 262.583V214.633H404.629V253.541H428.665V262.583H393.535ZM458.762 233.95H481.839V242.581H458.762V233.95ZM459.584 253.678H485.674V262.583H448.559V214.633H484.784V223.538H459.584V253.678Z" fill="#151515"/>
<path d="M553.201 262.583V242.992L555.734 249.705L534.643 214.633H546.421L562.582 241.554H555.803L572.032 214.633H582.92L561.829 249.705L564.294 242.992V262.583H553.201ZM622.467 263.405C618.678 263.405 615.163 262.789 611.922 261.556C608.726 260.323 605.941 258.588 603.567 256.35C601.239 254.112 599.413 251.486 598.089 248.472C596.811 245.458 596.172 242.17 596.172 238.608C596.172 235.046 596.811 231.758 598.089 228.744C599.413 225.73 601.262 223.105 603.636 220.867C606.01 218.629 608.795 216.894 611.99 215.661C615.186 214.428 618.655 213.811 622.399 213.811C626.188 213.811 629.658 214.428 632.808 215.661C636.003 216.894 638.765 218.629 641.094 220.867C643.467 223.105 645.316 225.73 646.64 228.744C647.964 231.713 648.626 235.001 648.626 238.608C648.626 242.17 647.964 245.481 646.64 248.541C645.316 251.555 643.467 254.181 641.094 256.418C638.765 258.61 636.003 260.323 632.808 261.556C629.658 262.789 626.211 263.405 622.467 263.405ZM622.399 253.952C624.545 253.952 626.508 253.587 628.288 252.856C630.114 252.126 631.712 251.075 633.082 249.705C634.451 248.335 635.501 246.714 636.232 244.842C637.008 242.969 637.396 240.892 637.396 238.608C637.396 236.325 637.008 234.247 636.232 232.375C635.501 230.503 634.451 228.881 633.082 227.511C631.758 226.141 630.183 225.091 628.357 224.36C626.53 223.63 624.545 223.264 622.399 223.264C620.253 223.264 618.267 223.63 616.441 224.36C614.661 225.091 613.086 226.141 611.716 227.511C610.347 228.881 609.274 230.503 608.498 232.375C607.767 234.247 607.402 236.325 607.402 238.608C607.402 240.846 607.767 242.924 608.498 244.842C609.274 246.714 610.324 248.335 611.648 249.705C613.017 251.075 614.615 252.126 616.441 252.856C618.267 253.587 620.253 253.952 622.399 253.952ZM691.956 263.405C685.154 263.405 679.835 261.51 676 257.72C672.166 253.929 670.248 248.518 670.248 241.485V214.633H681.342V241.074C681.342 245.641 682.277 248.929 684.149 250.938C686.021 252.948 688.646 253.952 692.024 253.952C695.402 253.952 698.027 252.948 699.899 250.938C701.771 248.929 702.707 245.641 702.707 241.074V214.633H713.663V241.485C713.663 248.518 711.746 253.929 707.911 257.72C704.076 261.51 698.758 263.405 691.956 263.405ZM738.321 262.583V214.633H759.07C763.361 214.633 767.059 215.341 770.164 216.757C773.268 218.127 775.665 220.113 777.354 222.716C779.043 225.319 779.888 228.425 779.888 232.032C779.888 235.594 779.043 238.677 777.354 241.28C775.665 243.837 773.268 245.801 770.164 247.171C767.059 248.541 763.361 249.226 759.07 249.226H744.484L749.415 244.362V262.583H738.321ZM768.794 262.583L756.81 245.184H768.657L780.778 262.583H768.794ZM749.415 245.595L744.484 240.389H758.454C761.878 240.389 764.434 239.659 766.123 238.197C767.813 236.69 768.657 234.635 768.657 232.032C768.657 229.384 767.813 227.329 766.123 225.867C764.434 224.406 761.878 223.675 758.454 223.675H744.484L749.415 218.401V245.595ZM845.39 262.583V223.675H830.051V214.633H871.823V223.675H856.484V262.583H845.39ZM891.488 262.583V214.633H902.581V262.583H891.488ZM927.652 262.583V214.633H936.828L957.235 248.472H952.373L972.437 214.633H981.545L981.682 262.583H971.273L971.204 230.594H973.122L957.098 257.514H952.099L935.733 230.594H938.061V262.583H927.652ZM1016.95 233.95H1040.03V242.581H1016.95V233.95ZM1017.78 253.678H1043.87V262.583H1006.75V214.633H1042.98V223.538H1017.78V253.678Z" fill="#FDD57F"/>
<path d="M114.13 57.0833H22.8261C10.2196 57.0833 0 67.3062 0 79.9167V171.25C0 183.861 10.2196 194.083 22.8261 194.083H114.13C126.737 194.083 136.957 183.861 136.957 171.25V79.9167C136.957 67.3062 126.737 57.0833 114.13 57.0833Z" fill="#151515"/>
<path d="M68.4784 78.1602C42.4039 78.1602 21.0703 99.5006 21.0703 125.583C21.0703 151.666 42.4039 173.006 68.4784 173.006C94.5527 173.006 115.887 151.666 115.887 125.583C115.887 99.5006 94.5527 78.1602 68.4784 78.1602ZM68.4784 90.016C88.1526 90.016 104.034 105.903 104.034 125.583C104.034 145.263 88.1526 161.151 68.4784 161.151C48.804 161.151 32.9223 145.263 32.9223 125.583C32.9223 105.903 48.804 90.016 68.4784 90.016ZM62.5524 101.872V128.192L64.4487 129.733L70.3747 135.661L74.4044 140.166L82.9378 131.63L78.4341 127.598L74.4044 123.568V102.109H62.5524V101.872Z" fill="#FDD57F"/>
</svg>
