<svg width="43" height="42" viewBox="0 0 43 42" fill="none" xmlns="http://www.w3.org/2000/svg">
<g clip-path="url(#clip0_51_123)">
<path d="M29.7703 19.5647H22.6698V12.5669C22.6698 12.3643 22.5016 12.1986 22.296 12.1986H20.0538C19.8482 12.1986 19.6801 12.3643 19.6801 12.5669V19.5647H12.5795C12.374 19.5647 12.2058 19.7304 12.2058 19.933V22.1428C12.2058 22.3453 12.374 22.5111 12.5795 22.5111H19.6801V29.5089C19.6801 29.7114 19.8482 29.8772 20.0538 29.8772H22.296C22.5016 29.8772 22.6698 29.7114 22.6698 29.5089V22.5111H29.7703C29.9758 22.5111 30.144 22.3453 30.144 22.1428V19.933C30.144 19.7304 29.9758 19.5647 29.7703 19.5647Z" fill="#FAFAFA"/>
<path d="M21.1753 0.410706C9.61825 0.410706 0.247437 9.64592 0.247437 21.0357C0.247437 32.4255 9.61825 41.6607 21.1753 41.6607C32.7323 41.6607 42.1031 32.4255 42.1031 21.0357C42.1031 9.64592 32.7323 0.410706 21.1753 0.410706ZM21.1753 38.1618C11.5802 38.1618 3.79769 30.4919 3.79769 21.0357C3.79769 11.5795 11.5802 3.90959 21.1753 3.90959C30.7703 3.90959 38.5528 11.5795 38.5528 21.0357C38.5528 30.4919 30.7703 38.1618 21.1753 38.1618Z" fill="#FAFAFA"/>
</g>
<defs>
<clipPath id="clip0_51_123">
<rect width="41.8557" height="41.25" fill="white" transform="translate(0.247437 0.410706)"/>
</clipPath>
</defs>
</svg>
