<svg width="48" height="48" viewBox="0 0 48 48" fill="none" xmlns="http://www.w3.org/2000/svg">
<path d="M42.561 37.4721C41.5504 35.0784 40.0839 32.9041 38.2431 31.0703C36.4079 29.2313 34.234 27.765 31.8413 26.7525C31.8199 26.7418 31.7985 26.7364 31.777 26.7257C35.1145 24.315 37.2842 20.3882 37.2842 15.9578C37.2842 8.61855 31.3377 2.67212 23.9985 2.67212C16.6592 2.67212 10.7127 8.61855 10.7127 15.9578C10.7127 20.3882 12.8824 24.315 16.2199 26.7311C16.1985 26.7418 16.177 26.7471 16.1556 26.7578C13.7556 27.7703 11.602 29.2221 9.75382 31.0757C7.91476 32.9109 6.44848 35.0848 5.43596 37.4775C4.44126 39.8199 3.90479 42.3313 3.8556 44.8757C3.85417 44.9329 3.8642 44.9898 3.8851 45.043C3.90599 45.0962 3.93734 45.1448 3.97728 45.1857C4.01722 45.2266 4.06495 45.2592 4.11765 45.2814C4.17036 45.3036 4.22698 45.315 4.28417 45.315H7.49846C7.73417 45.315 7.92167 45.1275 7.92703 44.8971C8.03417 40.7614 9.69489 36.8882 12.6306 33.9525C15.6681 30.915 19.702 29.2436 23.9985 29.2436C28.2949 29.2436 32.3288 30.915 35.3663 33.9525C38.302 36.8882 39.9627 40.7614 40.0699 44.8971C40.0752 45.1328 40.2627 45.315 40.4985 45.315H43.7127C43.7699 45.315 43.8266 45.3036 43.8793 45.2814C43.932 45.2592 43.9797 45.2266 44.0196 45.1857C44.0596 45.1448 44.0909 45.0962 44.1118 45.043C44.1327 44.9898 44.1427 44.9329 44.1413 44.8757C44.0877 42.315 43.5574 39.8239 42.561 37.4721ZM23.9985 25.1721C21.5395 25.1721 19.2252 24.2132 17.4842 22.4721C15.7431 20.7311 14.7842 18.4168 14.7842 15.9578C14.7842 13.4989 15.7431 11.1846 17.4842 9.44355C19.2252 7.70248 21.5395 6.74355 23.9985 6.74355C26.4574 6.74355 28.7717 7.70248 30.5127 9.44355C32.2538 11.1846 33.2127 13.4989 33.2127 15.9578C33.2127 18.4168 32.2538 20.7311 30.5127 22.4721C28.7717 24.2132 26.4574 25.1721 23.9985 25.1721Z" fill="white" fill-opacity="0.85"/>
</svg>
